C:\Users\nbianco\repos\ankle-perturb-sim\results\experiments\subject01\walk2\expdata\ground_reaction_unfiltered.mot
version=1
nRows=54
nColumns=19
inDegrees=no
endheader
time	ground_force_r_vx	ground_force_r_vy	ground_force_r_vz	ground_force_r_px	ground_force_r_py	ground_force_r_pz	ground_force_l_vx	ground_force_l_vy	ground_force_l_vz	ground_force_l_px	ground_force_l_py	ground_force_l_pz	ground_torque_r_x	ground_torque_r_y	ground_torque_r_z	ground_torque_l_x	ground_torque_l_y	ground_torque_l_z
0.230000	-105.978622	738.315831	-50.370791	1.046789	0.000000	-0.416517	-4.314121	31.261613	9.328832	0.541058	0.000000	-0.538335	0.000000	-5.318544	-0.000000	0.000000	0.000000	0.000000
0.231000	-105.876459	741.002250	-50.551564	1.045340	0.000000	-0.416929	-3.889877	28.357355	8.229777	0.493054	0.000000	-0.488668	0.000000	-5.040048	-0.000000	0.000000	0.000000	0.000000
0.232000	-105.773244	743.662217	-50.732876	1.043908	0.000000	-0.417335	-3.465902	25.442349	7.144327	0.444700	0.000000	-0.438789	0.000000	-4.761434	-0.000000	0.000000	0.000000	0.000000
0.233000	-105.659389	746.306023	-50.920142	1.042497	0.000000	-0.417731	-3.043235	22.512791	6.086423	0.395780	0.000000	-0.388611	0.000000	-4.484204	-0.000000	0.000000	0.000000	0.000000
0.234000	-105.525391	748.946393	-51.118668	1.041109	0.000000	-0.418115	-2.624291	19.577453	5.070510	0.346334	0.000000	-0.338265	0.000000	-4.209851	-0.000000	0.000000	0.000000	0.000000
0.235000	-105.362416	751.596604	-51.333211	1.039744	0.000000	-0.418483	-2.213195	16.660879	4.111395	0.296711	0.000000	-0.288163	0.000000	-3.939842	-0.000000	0.000000	0.000000	0.000000
0.236000	-105.162794	754.268822	-51.567623	1.038401	0.000000	-0.418834	-1.815740	13.803447	3.223718	0.247588	0.000000	-0.238999	0.000000	-3.675600	-0.000000	0.000000	0.000000	0.000000
0.237000	-104.920371	756.972770	-51.824576	1.037079	0.000000	-0.419164	-1.438964	11.058168	2.421072	0.199904	0.000000	-0.191690	0.000000	-3.418489	-0.000000	0.000000	0.000000	0.000000
0.238000	-104.630723	759.714791	-52.105414	1.035778	0.000000	-0.419473	-1.090417	8.484811	1.714893	0.154757	0.000000	-0.147276	0.000000	-3.169800	-0.000000	0.000000	0.000000	0.000000
0.239000	-104.291228	762.497332	-52.410100	1.034498	0.000000	-0.419760	-0.777269	6.142579	1.113349	0.113266	0.000000	-0.106791	0.000000	-2.930736	-0.000000	0.000000	0.000000	0.000000
0.240000	-103.901016	765.318816	-52.737266	1.033237	0.000000	-0.420025	-0.505439	4.082822	0.620462	0.076429	0.000000	-0.071137	0.000000	-2.702400	-0.000000	0.000000	0.000000	0.000000
0.241000	-103.460813	768.173852	-53.084346	1.031997	0.000000	-0.420268	-0.278917	2.343118	0.235659	0.045012	0.000000	-0.040979	0.000000	-2.485784	-0.000000	0.000000	0.000000	0.000000
0.242000	-102.972717	771.053713	-53.447761	1.030777	0.000000	-0.420488	-0.099355	0.943527	-0.046191	0.019470	0.000000	-0.016679	0.000000	-2.281759	-0.000000	0.000000	0.000000	0.000000
0.243000	-102.439926	773.946990	-53.823152	1.029580	0.000000	-0.420687	0.034024	-0.114739	-0.234272	-0.000084	-0.000000	0.001728	0.000000	-2.091066	-0.000000	0.000000	0.000000	0.000000
0.244000	-101.866445	776.840346	-54.205624	1.028404	0.000000	-0.420864	0.124248	-0.848414	-0.340961	-0.013867	-0.000000	0.014522	0.000000	-1.914316	-0.000000	0.000000	0.000000	0.000000
0.245000	-101.256809	779.719299	-54.589985	1.027253	0.000000	-0.421021	0.176199	-1.289500	-0.380746	-0.022387	-0.000000	0.022245	0.000000	-1.751976	-0.000000	0.000000	0.000000	0.000000
0.246000	-100.615818	782.568950	-54.970975	1.026127	0.000000	-0.421159	0.196090	-1.481404	-0.369075	-0.026371	-0.000000	0.025643	0.000000	-1.604376	-0.000000	0.000000	0.000000	0.000000
0.247000	-99.948314	785.374639	-55.343458	1.025027	0.000000	-0.421278	0.190871	-1.474496	-0.321249	-0.026689	-0.000000	0.025583	0.000000	-1.471704	-0.000000	0.000000	0.000000	0.000000
0.248000	-99.259006	788.122465	-55.702587	1.023953	0.000000	-0.421380	0.167656	-1.321645	-0.251470	-0.024272	-0.000000	0.022979	0.000000	-1.354009	-0.000000	0.000000	0.000000	0.000000
0.249000	-98.552336	790.799687	-56.043918	1.022907	0.000000	-0.421466	0.133215	-1.074171	-0.172107	-0.020036	-0.000000	0.018719	0.000000	-1.251202	-0.000000	0.000000	0.000000	0.000000
0.250000	-97.832390	793.394973	-56.363498	1.021888	0.000000	-0.421536	0.093565	-0.778539	-0.093209	-0.014825	-0.000000	0.013609	0.000000	-1.163065	-0.000000	0.000000	0.000000	0.000000
0.251000	-97.102857	795.898534	-56.657909	1.020896	0.000000	-0.421594	0.053691	-0.473967	-0.022279	-0.009356	-0.000000	0.008331	0.000000	-1.089252	-0.000000	0.000000	0.000000	0.000000
0.252000	-96.367008	798.302143	-56.924289	1.019930	0.000000	-0.421638	0.017392	-0.191013	0.035732	-0.004200	-0.000000	0.003417	0.000000	-1.029303	-0.000000	0.000000	0.000000	0.000000
0.253000	-95.627716	800.599069	-57.160318	1.018988	0.000000	-0.421672	-0.012753	0.048912	0.078230	0.000237	0.000000	-0.000758	0.000000	-0.982649	-0.000000	0.000000	0.000000	0.000000
0.254000	-94.887477	802.783950	-57.364198	1.018069	0.000000	-0.421696	-0.035319	0.233225	0.104646	0.003704	0.000000	-0.003974	0.000000	-0.948621	-0.000000	0.000000	0.000000	0.000000
0.255000	-94.148459	804.852628	-57.534614	1.017172	0.000000	-0.421711	-0.049892	0.357218	0.116017	0.006099	0.000000	-0.006146	0.000000	-0.926466	-0.000000	0.000000	0.000000	0.000000
0.256000	-93.412538	806.801968	-57.670688	1.016293	0.000000	-0.421719	-0.056873	0.422681	0.114523	0.007435	0.000000	-0.007303	0.000000	-0.915355	-0.000000	0.000000	0.000000	0.000000
0.257000	-92.681343	808.629678	-57.771937	1.015432	0.000000	-0.421720	-0.057261	0.436275	0.103034	0.007820	0.000000	-0.007558	0.000000	-0.914397	-0.000000	0.000000	0.000000	0.000000
0.258000	-91.956296	810.334147	-57.838227	1.014585	0.000000	-0.421717	-0.052427	0.407869	0.084703	0.007422	0.000000	-0.007082	0.000000	-0.922650	-0.000000	0.000000	0.000000	0.000000
0.259000	-91.238641	811.914302	-57.869731	1.013751	0.000000	-0.421711	-0.043917	0.348949	0.062619	0.006444	0.000000	-0.006072	0.000000	-0.939138	-0.000000	0.000000	0.000000	0.000000
0.260000	-90.529467	813.369499	-57.866893	1.012928	0.000000	-0.421701	-0.033270	0.271257	0.039546	0.005097	0.000000	-0.004732	0.000000	-0.962857	-0.000000	0.000000	0.000000	0.000000
0.261000	-89.829730	814.699438	-57.830401	1.012112	0.000000	-0.421690	-0.021886	0.185687	0.017747	0.003579	0.000000	-0.003252	0.000000	-0.992795	-0.000000	0.000000	0.000000	0.000000
0.262000	-89.140257	815.904106	-57.761154	1.011303	0.000000	-0.421679	-0.010934	0.101507	-0.001109	0.002060	0.000000	-0.001792	0.000000	-1.027940	-0.000000	0.000000	0.000000	0.000000
0.263000	-88.461758	816.983743	-57.660244	1.010498	0.000000	-0.421667	-0.001294	0.025890	-0.015969	0.000676	0.000000	-0.000478	0.000000	-1.067290	-0.000000	0.000000	0.000000	0.000000
0.264000	-87.794824	817.938824	-57.528932	1.009695	0.000000	-0.421657	0.006457	-0.036277	-0.026356	-0.000479	-0.000000	0.000605	0.000000	-1.109870	-0.000000	0.000000	0.000000	0.000000
0.265000	-87.139932	818.770054	-57.368636	1.008893	0.000000	-0.421648	0.012032	-0.082329	-0.032290	-0.001352	-0.000000	0.001409	0.000000	-1.154736	-0.000000	0.000000	0.000000	0.000000
0.266000	-86.497445	819.478362	-57.180902	1.008091	0.000000	-0.421641	0.015395	-0.111592	-0.034181	-0.001925	-0.000000	0.001923	0.000000	-1.200988	-0.000000	0.000000	0.000000	0.000000
0.267000	-85.867610	820.064904	-56.967395	1.007288	0.000000	-0.421637	0.016715	-0.125013	-0.032707	-0.002210	-0.000000	0.002161	0.000000	-1.247776	-0.000000	0.000000	0.000000	0.000000
0.268000	-85.250565	820.531054	-56.729877	1.006482	0.000000	-0.421636	0.016303	-0.124737	-0.028702	-0.002243	-0.000000	0.002162	0.000000	-1.294308	-0.000000	0.000000	0.000000	0.000000
0.269000	-84.646342	820.878401	-56.470180	1.005672	0.000000	-0.421638	0.014560	-0.113661	-0.023045	-0.002074	-0.000000	0.001974	0.000000	-1.339856	-0.000000	0.000000	0.000000	0.000000
0.270000	-84.054873	821.108725	-56.190195	1.004859	0.000000	-0.421644	0.011916	-0.095019	-0.016578	-0.001759	-0.000000	0.001654	0.000000	-1.383761	-0.000000	0.000000	0.000000	0.000000
0.271000	-83.475995	821.223980	-55.891839	1.004042	0.000000	-0.421653	0.008792	-0.072032	-0.010034	-0.001358	-0.000000	0.001257	0.000000	-1.425437	-0.000000	0.000000	0.000000	0.000000
0.272000	-82.909465	821.226263	-55.577040	1.003220	0.000000	-0.421667	0.005562	-0.047621	-0.003999	-0.000923	-0.000000	0.000835	0.000000	-1.464370	-0.000000	0.000000	0.000000	0.000000
0.273000	-82.354962	821.117783	-55.247706	1.002394	0.000000	-0.421684	0.002529	-0.024217	0.001106	-0.000500	-0.000000	0.000429	0.000000	-1.500123	-0.000000	0.000000	0.000000	0.000000
0.274000	-81.812101	820.900824	-54.905712	1.001563	0.000000	-0.421705	-0.000082	-0.003651	0.005033	-0.000122	-0.000000	0.000071	0.000000	-1.532336	-0.000000	0.000000	0.000000	0.000000
0.275000	-81.280441	820.577716	-54.552872	1.000728	0.000000	-0.421729	-0.002133	0.012880	0.007688	0.000186	0.000000	-0.000217	0.000000	-1.560722	-0.000000	0.000000	0.000000	0.000000
0.276000	-80.759492	820.150798	-54.190921	0.999889	0.000000	-0.421758	-0.003563	0.024785	0.009108	0.000413	0.000000	-0.000425	0.000000	-1.585069	-0.000000	0.000000	0.000000	0.000000
0.277000	-80.248722	819.622395	-53.821503	0.999047	0.000000	-0.421790	-0.004379	0.032001	0.009430	0.000556	0.000000	-0.000552	0.000000	-1.605233	-0.000000	0.000000	0.000000	0.000000
0.278000	-79.747566	818.994793	-53.446153	0.998202	0.000000	-0.421825	-0.004639	0.034890	0.008859	0.000619	0.000000	-0.000604	0.000000	-1.621140	-0.000000	0.000000	0.000000	0.000000
0.279000	-79.255427	818.270225	-53.066286	0.997356	0.000000	-0.421863	-0.004438	0.034114	0.007633	0.000615	0.000000	-0.000592	0.000000	-1.632774	-0.000000	0.000000	0.000000	0.000000
0.280000	-78.771683	817.450862	-52.683191	0.996509	0.000000	-0.421905	-0.003891	0.030516	0.005998	0.000559	0.000000	-0.000530	0.000000	-1.640181	-0.000000	0.000000	0.000000	0.000000
0.281000	-78.295690	816.538814	-52.298020	0.995662	0.000000	-0.421950	-0.003119	0.025008	0.004185	0.000465	0.000000	-0.000436	0.000000	-1.643457	-0.000000	0.000000	0.000000	0.000000
0.282000	-77.826786	815.536126	-51.911791	0.994817	0.000000	-0.421997	-0.002238	0.018477	0.002388	0.000350	0.000000	-0.000323	0.000000	-1.642745	-0.000000	0.000000	0.000000	0.000000
0.283000	-77.364290	814.444796	-51.525379	0.993973	0.000000	-0.422046	-0.001347	0.011710	0.000763	0.000229	0.000000	-0.000206	0.000000	-1.638227	-0.000000	0.000000	0.000000	0.000000
